<svg width="60" height="60" viewBox="0 0 60 60" fill="none" xmlns="http://www.w3.org/2000/svg">
<path fill-rule="evenodd" clip-rule="evenodd" d="M26.1747 9.27246C21.3997 17.87 10.0872 38.2325 5.42466 46.625C4.67216 47.98 4.69216 49.6325 5.47716 50.9675C6.26466 52.305 7.69716 53.125 9.24716 53.125H50.7522C52.3022 53.125 53.7347 52.305 54.5222 50.9675C55.3072 49.6325 55.3272 47.98 54.5747 46.625L33.8247 9.27246C33.0522 7.88496 31.5897 7.02246 29.9997 7.02246C28.4097 7.02246 26.9472 7.88496 26.1747 9.27246ZM29.9997 41.25C31.3797 41.25 32.4997 42.37 32.4997 43.75C32.4997 45.13 31.3797 46.25 29.9997 46.25C28.6197 46.25 27.4997 45.13 27.4997 43.75C27.4997 42.37 28.6197 41.25 29.9997 41.25ZM33.4622 23.735C33.5372 22.7725 33.2047 21.8225 32.5497 21.1125C31.8922 20.4025 30.9697 20 30.0022 20C29.9997 20 29.9997 20 29.9972 20C29.0297 20 28.1072 20.4025 27.4497 21.1125C26.7947 21.8225 26.4622 22.7725 26.5372 23.735C26.7797 26.8825 27.1172 31.285 27.3222 33.9425C27.4222 35.245 28.5072 36.25 29.8147 36.25C29.9372 36.25 30.0622 36.25 30.1847 36.25C31.4922 36.25 32.5772 35.245 32.6772 33.9425C32.8822 31.285 33.2197 26.8825 33.4622 23.735Z" fill="#FF3259"/>
</svg>
