<svg xmlns="http://www.w3.org/2000/svg" xmlns:xlink="http://www.w3.org/1999/xlink" width="40" height="40.196" viewBox="0 0 40 40.196">
  <defs>
    <path id="path-3" fill-rule="evenodd" d="M37.85272718 20.119443v-5.63631397s.00266061-.72434687-.5803608-1.28830034c-.5830214-.56395347-1.30643986-.5367918-1.30643986-.5367918H1.88961992s-.74688534-.05182978-1.3304243.51212369c-.58353895.56395347-.55805127 1.31296845-.55805127 1.31296845v22.97468932s-.06183366 1.1405596.72355025 1.95331607c.78538392.81275648 1.81814526.67696379 1.81814526.67696379l33.0964767.10735836s.7185193.02324308 1.46974484-.59047099.74366578-1.50301706.74366578-1.50301706v-5.5289556"/>
    <mask id="mask-4" x="0" y="0" maskContentUnits="userSpaceOnUse" maskUnits="userSpaceOnUse">
      <rect width="40" height="40.196" x="0" y="0" fill="black"/>
      <use fill="white" xlink:href="#path-3"/>
    </mask>
    <path id="path-6" fill-rule="evenodd" d="M21.4117647 26.92845927c-.11151193 1.87244404-.87118702 3.58087837-2.07690986 4.90662342l-2.46720165-2.41914302c.5714987-.69020747.94785148-1.55125838 1.04542443-2.4874804h3.49868709z"/>
    <mask id="mask-7" x="0" y="0" maskContentUnits="userSpaceOnUse" maskUnits="userSpaceOnUse">
      <rect width="40" height="40.196" x="0" y="0" fill="black"/>
      <use fill="white" xlink:href="#path-6"/>
    </mask>
    <path id="path-8" fill-rule="evenodd" d="M21.4117647 25.90339867h-3.49868708c-.23696287-2.22779838-2.04903188-4.00457009-4.32108763-4.23691716v-3.43053615c4.1956367.24601455 7.56887285 3.55354343 7.81977472 7.66745331z"/>
    <mask id="mask-9" x="0" y="0" maskContentUnits="userSpaceOnUse" maskUnits="userSpaceOnUse">
      <rect width="40" height="40.196" x="0" y="0" fill="black"/>
      <use fill="white" xlink:href="#path-8"/>
    </mask>
  </defs>
  <g>
    <path fill="rgb(37,71,84)" fill-rule="evenodd" d="M5.51722876 10.42703174l3.23120048-7.39685191s.31403549-.79944404 1.30643987-1.18094198c.68877336-.26477676 1.33921124-.1878767 1.67274562-.11603545.1470315.03166967.5746304.21117172.5746304.21117172l13.5932074 5.91693197s1.03905715.48244371 1.254401 1.44900342c.07870894.353281.04138398.75671538-.03766823 1.12644487 0 0-3.91134902.04665928-3.92992196-.0075206-.45270189-1.32059579.04587445-2.40689015.04587445-2.40689015l-9.63499403-4.1869761s-.45949534 1.09647738-1.90605088 1.66043085c-1.44655555.56395347-2.66648867.21834048-2.66648867.21834048l-2.05137965 4.72009266-1.4519958-.00719978z"/>
    <path fill="rgb(37,71,84)" fill-rule="evenodd" d="M19.36325318 3.62065081L22.79265784.50725833S23.3331409 0 24.2078024 0c.8746615 0 1.41547515.50725833 1.41547515.50725833l9.92853547 9.93326341-1.59754316-.00175414-7.29672741-7.30122941s-1.02816374.87065997-2.55882135.87065997c-1.5306576 0-2.39476315-.87065997-2.39476315-.87065997l-1.25200488.96622525-1.08869989-.48311263z"/>
    <use fill-opacity="0" stroke="rgb(216,81,79)" stroke-linecap="butt" stroke-linejoin="miter" stroke-width="3" mask="url(#mask-4)" xlink:href="#path-3"/>
    <path fill="rgb(216,81,79)" fill-rule="evenodd" d="M18.59608825 32.55945885c-1.4775332 1.28474262-3.40808364 2.05695494-5.52681048 2.05695494-4.61380647 0-8.36339542-3.6765507-8.36339542-8.20048482 0-4.3530907 3.4708091-7.92030159 7.84068321-8.1799836v3.43053614c-2.44629316.25284829-4.35593512 2.28930202-4.35593512 4.74944746 0 2.63782262 2.1884218 4.78361615 4.87864733 4.78361615 1.15693637 0 2.22326929-.39635677 3.05960883-1.0592293l2.46720165 2.41914303z"/>
    <use fill-opacity="0" stroke="rgb(255,193,192)" stroke-linecap="butt" stroke-linejoin="miter" stroke-width="3" mask="url(#mask-7)" xlink:href="#path-6"/>
    <use fill-opacity="0" stroke="rgb(37,71,84)" stroke-linecap="butt" stroke-linejoin="miter" stroke-width="3" mask="url(#mask-9)" xlink:href="#path-8"/>
    <path fill="rgb(255,193,192)" fill-rule="evenodd" d="M30.19596429 21.46142251h8.54614695s.5534187-.03301835.9402882.29871899.31171668.88222299.31171668.88222299v7.24668939s-.0446367.6881671-.38104497 1.01990443c-.33640826.33173734-.87095991.32207509-.87095991.32207509h-8.54614695s-1.5481573-.09213442-2.20396156-.4052531c-1.1571033-.55246769-2.75645346-1.7928858-2.75645346-4.42900069 0-2.49652821 1.43445805-3.77819572 2.56922493-4.40150983.74255195-.40787505 2.39119009-.53384727 2.39119009-.53384727z"/>
    <ellipse cx="30.087" cy="26.239" fill="rgb(216,81,79)" rx="2.558" ry="2.63"/>
  </g>
</svg>
