<svg xmlns="http://www.w3.org/2000/svg" width="45" height="43" viewBox="0 0 45 43">
  <g transform="matrix(-1 0 0 1 45 0)">
    <path fill="rgb(37,71,84)" fill-rule="evenodd" d="M8.61890221 9.53937266V7.60268905h1.34375104v1.9366836h1.99074228v1.30726145H9.96265325v1.9366836H8.61890221v-1.9366836H6.62815993V9.53937266H8.6189022z"/>
    <path fill="rgb(37,71,84)" fill-rule="evenodd" d="M5.23464033 4.3103269V1.74422113h1.34375104v2.56610579h2.73727064v1.30726144H6.57839137v2.61452287H5.23464033V5.61758835H2.54713825V4.3103269h2.68750208z"/>
    <path fill="none" stroke="rgb(216,81,79)" stroke-linecap="butt" stroke-linejoin="miter" stroke-width="1.5" d="M5.58302023 15.49467476s-4.57641877 10.72552855 5.6001069 19.37951191c5.4554923 4.63927877 11.7531586 4.64110408 16.15203136 3.45771806 3.80666384-1.0240698 6.11825369-2.98622295 6.11825369-2.98622295"/>
    <ellipse cx="37.799" cy="31.404" fill="rgb(37,71,84)" rx="3.29" ry="3.255"/>
    <path fill="none" stroke="rgb(216,81,79)" stroke-linecap="butt" stroke-linejoin="miter" stroke-width="1.5" d="M13.99390637 5.66600544s2.45442932-1.48382514 6.56048459-1.91769068c2.11841729-.22384216 5.0382517-.23850058 7.86220238.62780393 2.64961564.81282369 5.21199525 2.44039428 7.03220862 4.24126272 3.76019014 3.72022746 4.70023768 7.90548334 4.70023768 7.90548334"/>
    <path fill="none" stroke="rgb(216,81,79)" stroke-linecap="butt" stroke-linejoin="miter" stroke-width="1.5" d="M40.07263026 16.51143366s.7227797 2.11283606.59975183 5.3743081c-.12302787 3.26147203-.99790028 5.18061758-.99790028 5.18061758"/>
    <path fill="rgb(255,193,192)" fill-rule="evenodd" d="M41.78567603 27.733837c.48910276-.8359451 2.03542909-3.63539664 2.72792711-6.32854387.65581515-2.55048635.47332614-5.01194825.43070965-5.39988357-.09103465-.8286827-.2292494-1.64314732-.41440984-2.43850153-.76631005-3.29167471-2.33671674-6.2560218-4.694601-8.54623586-2.5154707-2.44327784-5.93738981-4.11565228-9.62776817-4.81722523-.7954168-.15121564-3.43060813-.28104663-4.56524422-.14835954-.95940668.11219534-2.10985248.28645909-3.17665424.54114512-2.02402238.4832109-3.66282198 1.33948807-4.18114766 1.56104075 0 0 10.9222056-2.88069358 19.32680393 5.53507968 8.40459834 8.41577326 4.17438444 20.04148404 4.17438444 20.04148404z"/>
    <path fill="rgb(255,193,192)" fill-rule="evenodd" d="M3.21432397 15.266163c-.48910276.8359451-2.03542909 3.63539664-2.72792711 6.32854387-.65581515 2.55048635-.47332614 5.01194825-.43070965 5.39988357.09103465.8286827.2292494 1.64314732.41440984 2.43850153.76631005 3.29167471 2.33671674 6.2560218 4.694601 8.54623586 2.5154707 2.44327784 5.93738981 4.11565228 9.62776817 4.81722523.7954168.15121564 3.43060813.28104663 4.56524422.14835954.95940668-.11219534 2.10985248-.28645909 3.17665424-.54114512 2.02402238-.4832109 3.66282198-1.33948807 4.18114766-1.56104075 0 0-10.9222056 2.88069358-19.32680393-5.53507968C-1.01588993 26.89187379 3.21432397 15.266163 3.21432397 15.266163z"/>
    <path fill="none" stroke="rgb(255,193,192)" stroke-linecap="butt" stroke-linejoin="miter" stroke-width="1.5" d="M18.01851126 29.92431739v-4.73047076l1.29236702-.62749207v-3.66841518s-.03544068-.72861484-.69588993-1.39979c-.66044926-.67117518-1.4414863-.77229794-1.4414863-.77229794h-2.43561478s-.67736082.08861628-1.30709151.75979146c-.62973069.67117517-.73087187 1.41229648-.73087187 1.41229648v3.66841518l1.19295417.62749207v4.77859346s0 .19307448.09941285.28961172c.09941285.09653725.29823855.09653725.29823855.09653725h3.33034971s.17535092.00781051.29821924-.09653725c.12286831-.10434775.09941285-.33773442.09941285-.33773442z"/>
    <ellipse cx="16.005" cy="16.747" fill="rgb(216,81,79)" rx="2.237" ry="2.172" transform="matrix(-1 0 0 1 32.01080217 0)"/>
    <path fill="none" stroke="rgb(255,193,192)" stroke-linecap="butt" stroke-linejoin="miter" stroke-width="1.5" d="M31.31497968 29.92431739v-4.73047076l1.29236703-.62749207v-3.66841518s-.03544068-.72861484-.69588994-1.39979c-.66044926-.67117518-1.4414863-.77229794-1.4414863-.77229794H28.0343557s-.67736083.08861628-1.30709152.75979146c-.62973068.67117517-.73087187 1.41229648-.73087187 1.41229648v3.66841518l1.19295418.62749207v4.77859346s0 .19307448.09941285.28961172c.09941284.09653725.29823854.09653725.29823854.09653725h3.33034971s.17535093.00781051.29821924-.09653725c.12286832-.10434775.09941285-.33773442.09941285-.33773442z"/>
    <ellipse cx="29.302" cy="16.747" fill="rgb(216,81,79)" rx="2.237" ry="2.172" transform="matrix(-1 0 0 1 58.60373902 0)"/>
    <path fill="rgb(216,81,79)" fill-rule="evenodd" d="M24.65431886 29.92431739v-4.73047076l1.29236703-.62749207v-3.66841518s-.03544068-.72861484-.69588994-1.39979c-.66044925-.67117518-1.4414863-.77229794-1.4414863-.77229794h-2.43561477s-.67736083.08861628-1.30709151.75979146c-.62973069.67117517-.73087188 1.41229648-.73087188 1.41229648v3.66841518l1.19295418.62749207v4.77859346s0 .19307448.09941285.28961172c.09941285.09653725.29823854.09653725.29823854.09653725h3.33034972s.17535092.00781051.29821924-.09653725c.12286831-.10434775.09941284-.33773442.09941284-.33773442z"/>
    <ellipse cx="22.641" cy="16.747" fill="rgb(216,81,79)" rx="2.237" ry="2.172" transform="matrix(-1 0 0 1 45.28241738 0)"/>
  </g>
</svg>
