<svg width="145" height="61" viewBox="0 0 145 61" fill="none" xmlns="http://www.w3.org/2000/svg">
<path d="M109.592 21.5319C113.464 17.3225 118.221 15.3796 124.311 15.3796C130.053 15.3796 134.779 17.4898 138.584 21.6348C142.08 25.4437 144.118 31.5537 144.118 36.6575H144.117C144.118 36.6917 144.118 36.726 144.118 36.7604C144.118 40.2268 141.308 43.037 137.841 43.037C134.375 43.037 131.565 40.2268 131.565 36.7604C131.565 36.726 131.565 36.6917 131.566 36.6575H131.565C131.102 31.9758 128.838 27.9047 124.053 27.9047C119.526 27.9047 117.057 31.1526 116.542 36.6575C116.542 40.1239 113.732 42.9341 110.266 42.9341C106.799 42.9341 103.989 40.1239 103.989 36.6575C103.989 31.2055 105.88 25.5665 109.592 21.5319Z" fill="#FF3259"/>
<path d="M137.84 30.3809H126.213C122.747 30.3809 119.937 33.191 119.937 36.6574C119.937 40.1239 122.747 42.934 126.213 42.934H137.84C141.307 42.934 144.117 40.1239 144.117 36.6574C144.117 33.191 141.307 30.3809 137.84 30.3809Z" fill="#F8A80E" fill-opacity="0.85"/>
<path d="M139.487 57.031C139.487 57.031 136.573 59.1289 132.284 60.2931C129.809 60.9652 126.328 60.9832 124.099 60.9911C118.357 61.0113 113.623 58.9177 109.804 54.7862C108.021 52.858 106.354 49.592 105.345 46.1756C104.475 43.2299 103.999 39.7924 103.988 36.7607C103.976 33.2942 106.799 30.5128 110.265 30.5005C113.732 30.4883 116.529 33.2942 116.541 36.7607C116.557 41.0613 117.552 46.0854 121.995 47.9714C123.642 48.6704 125.975 48.7405 127.706 48.3942C130.17 47.9008 132.233 46.793 132.233 46.793C132.667 46.527 133.096 46.3115 133.519 46.1421C137.056 44.7268 140.16 46.5419 141.467 49.2109C142.696 51.7215 142.306 54.9875 139.487 57.031Z" fill="#669CFF"/>
<path d="M110.265 43.0375C113.731 43.0375 116.541 40.2274 116.541 36.761C116.541 33.2945 113.731 30.4844 110.265 30.4844C106.798 30.4844 103.988 33.2945 103.988 36.761C103.988 40.2274 106.798 43.0375 110.265 43.0375Z" fill="#674ABE"/>
<path d="M73.7289 19.4438L87.519 52.0758C88.8951 55.3358 87.3679 59.0941 84.1081 60.4701C80.8481 61.8462 77.09 60.3191 75.7138 57.0592L61.9237 24.4271C60.5476 21.1672 62.0748 17.409 65.3347 16.0329C68.5946 14.6568 72.3528 16.1839 73.7289 19.4438Z" fill="#FF3259"/>
<path d="M101.382 24.3082L93.038 43.7391C93.038 43.7391 87.7865 57.0781 86.316 58.9162C84.8456 60.7542 80.9594 62.0671 77.8084 59.7564C74.6575 57.4457 74.71 54.0847 76.0229 51.0388C77.3358 47.9929 82.3653 36.0718 82.3653 36.0718L89.6245 19.0041C89.6245 19.0041 92.0987 13.6475 97.922 15.9582C103.745 18.2689 101.382 24.3082 101.382 24.3082Z" fill="#F3AF2C" fill-opacity="0.85"/>
<path d="M81.5957 60.9457C85.1341 60.9457 88.0026 58.0772 88.0026 54.5388C88.0026 51.0003 85.1341 48.1318 81.5957 48.1318C78.0572 48.1318 75.1887 51.0003 75.1887 54.5388C75.1887 58.0772 78.0572 60.9457 81.5957 60.9457Z" fill="#674ABE"/>
<path d="M50.9652 13.3278C54.597 13.3278 57.5412 10.3836 57.5412 6.7518C57.5412 3.11997 54.597 0.175781 50.9652 0.175781C47.3333 0.175781 44.3892 3.11997 44.3892 6.7518C44.3892 10.3836 47.3333 13.3278 50.9652 13.3278Z" fill="#FF3259"/>
<path d="M57.4365 21.8503V54.5726C57.4365 58.1172 54.563 60.9908 51.0183 60.9908C47.4736 60.9908 44.6001 58.1172 44.6001 54.5726V21.8503C44.6001 18.3057 47.4736 15.4321 51.0183 15.4321C54.563 15.4321 57.4365 18.3057 57.4365 21.8503Z" fill="#669CFF"/>
<path d="M37.8367 6.48483V40.9777C37.6567 44.5735 37.2642 46.6922 36.1389 49.5622C35.807 50.4088 35.4369 51.2068 34.9803 51.9927C33.0356 55.3403 31.182 57.2675 28.0111 57.2675C23.0275 57.2675 19.8306 51.1677 22.878 47.1833C23.4775 46.3996 24.0391 45.8538 24.4012 44.9079C25.0869 43.1162 25.2186 41.217 25.2186 39.2712V6.48483C25.2186 3.00044 28.0432 0.175781 31.5276 0.175781C35.012 0.175781 37.8367 3.00044 37.8367 6.48483Z" fill="#FF3259"/>
<path d="M31.5273 0.175781H19.8401C16.3557 0.175781 13.531 3.00044 13.531 6.48483C13.531 9.96922 16.3557 12.7939 19.8401 12.7939H31.5273C35.0117 12.7939 37.8363 9.96922 37.8363 6.48483C37.8363 3.00044 35.0117 0.175781 31.5273 0.175781Z" fill="#F8A80E" fill-opacity="0.85"/>
<path d="M8.59567 59.4641C11.5172 60.6841 14.7805 60.9608 17.3789 60.9895C20.2723 61.0214 24.0399 60.4297 27.1439 59.0298C28.6329 58.3584 29.8946 57.5404 31.2121 56.4968C31.9537 55.9096 32.6408 55.3522 33.1373 54.534C34.5864 52.1456 34.5585 49.0966 32.3547 46.7178C30.6354 44.8618 28.0541 44.4361 26.1106 44.9638C25.4189 45.1516 24.7929 45.4412 24.184 45.8904C23.8453 46.1403 23.549 46.417 23.2532 46.7178C22.9463 47.0297 22.6399 47.3657 22.2873 47.6195C17.9095 50.7702 14.9027 50.0132 10.4188 46.0856C10.0418 45.7555 9.73388 45.4986 9.26734 45.3112C6.19063 44.0753 3.30523 45.1371 1.7757 47.2616C0.392035 49.1835 0.123087 51.9804 1.56181 54.4667C2.03539 55.2852 2.67265 55.9458 3.37736 56.5669C5.23136 58.2013 6.80534 58.7166 8.59567 59.4641Z" fill="#669CFF"/>
<path d="M27.8043 57.4742C31.2887 57.4742 34.1133 54.6264 34.1133 51.1134C34.1133 47.6005 31.2887 44.7527 27.8043 44.7527C24.3199 44.7527 21.4952 47.6005 21.4952 51.1134C21.4952 54.6264 24.3199 57.4742 27.8043 57.4742Z" fill="#674ABE"/>
</svg>
