<svg width="24" height="21" viewBox="0 0 24 21" fill="none" xmlns="http://www.w3.org/2000/svg">
<g clip-path="url(#clip0_142_6945)">
<path fill-rule="evenodd" clip-rule="evenodd" d="M2.52608 8.53125C1.47766 8.53125 0.631348 9.41063 0.631348 10.5C0.631348 11.5894 1.47766 12.4688 2.52608 12.4688C3.57451 12.4688 4.42082 11.5894 4.42082 10.5C4.42082 9.41063 3.57451 8.53125 2.52608 8.53125ZM2.52608 0.65625C1.47766 0.65625 0.631348 1.53562 0.631348 2.625C0.631348 3.71438 1.47766 4.59375 2.52608 4.59375C3.57451 4.59375 4.42082 3.71438 4.42082 2.625C4.42082 1.53562 3.57451 0.65625 2.52608 0.65625ZM2.52608 16.4062C1.47766 16.4062 0.631348 17.2987 0.631348 18.375C0.631348 19.4513 1.4903 20.3438 2.52608 20.3438C3.56187 20.3438 4.42082 19.4513 4.42082 18.375C4.42082 17.2987 3.57451 16.4062 2.52608 16.4062ZM7.57872 19.6875H22.7366C23.4313 19.6875 23.9998 19.0969 23.9998 18.375C23.9998 17.6531 23.4313 17.0625 22.7366 17.0625H7.57872C6.88398 17.0625 6.31556 17.6531 6.31556 18.375C6.31556 19.0969 6.88398 19.6875 7.57872 19.6875ZM7.57872 11.8125H22.7366C23.4313 11.8125 23.9998 11.2219 23.9998 10.5C23.9998 9.77812 23.4313 9.1875 22.7366 9.1875H7.57872C6.88398 9.1875 6.31556 9.77812 6.31556 10.5C6.31556 11.2219 6.88398 11.8125 7.57872 11.8125ZM6.31556 2.625C6.31556 3.34687 6.88398 3.9375 7.57872 3.9375H22.7366C23.4313 3.9375 23.9998 3.34687 23.9998 2.625C23.9998 1.90313 23.4313 1.3125 22.7366 1.3125H7.57872C6.88398 1.3125 6.31556 1.90313 6.31556 2.625Z" fill="#FF3259"/>
</g>
<defs>
<clipPath id="clip0_142_6945">
<rect width="24" height="21" fill="white"/>
</clipPath>
</defs>
</svg>
