<svg width="32" height="32" viewBox="0 0 32 32" fill="none" xmlns="http://www.w3.org/2000/svg">
<path d="M28.9462 15.0667L25.9462 12.0667C25.6969 11.8086 25.3553 11.66 24.9965 11.6538C24.6376 11.6475 24.291 11.7841 24.0329 12.0334C23.7747 12.2827 23.6262 12.6243 23.62 12.9831C23.6137 13.3419 23.7503 13.6886 23.9996 13.9467L24.7196 14.6667H13.5462C13.1926 14.6667 12.8535 14.8072 12.6034 15.0572C12.3534 15.3073 12.2129 15.6464 12.2129 16C12.2129 16.3537 12.3534 16.6928 12.6034 16.9428C12.8535 17.1929 13.1926 17.3334 13.5462 17.3334H24.7996L24.0796 18.0534C23.94 18.1729 23.8266 18.32 23.7466 18.4854C23.6666 18.6508 23.6216 18.831 23.6145 19.0146C23.6074 19.1983 23.6383 19.3814 23.7054 19.5525C23.7724 19.7236 23.8741 19.879 24.004 20.0089C24.134 20.1388 24.2894 20.2405 24.4605 20.3075C24.6316 20.3746 24.8147 20.4055 24.9983 20.3984C25.1819 20.3913 25.3621 20.3464 25.5275 20.2663C25.6929 20.1863 25.84 20.0729 25.9596 19.9334L28.9329 16.96C29.0587 16.837 29.159 16.6902 29.2278 16.5282C29.2966 16.3662 29.3327 16.1922 29.334 16.0161C29.3352 15.8401 29.3016 15.6656 29.235 15.5027C29.1685 15.3397 29.0703 15.1915 28.9462 15.0667Z" fill="#F3AF2C" fill-opacity="0.85"/>
<path d="M10.8803 16.0001C10.8803 15.2928 11.1613 14.6146 11.6614 14.1145C12.1615 13.6144 12.8397 13.3334 13.547 13.3334H21.8937V8.00008C21.8937 6.58559 21.3318 5.22904 20.3316 4.22885C19.3314 3.22865 17.9748 2.66675 16.5603 2.66675H8.00033C6.58584 2.66675 5.22928 3.22865 4.22909 4.22885C3.2289 5.22904 2.66699 6.58559 2.66699 8.00008V24.0001C2.66699 25.4146 3.2289 26.7711 4.22909 27.7713C5.22928 28.7715 6.58584 29.3334 8.00033 29.3334H16.5603C17.2607 29.3334 17.9542 29.1955 18.6013 28.9274C19.2484 28.6594 19.8363 28.2666 20.3316 27.7713C20.8268 27.2761 21.2197 26.6881 21.4877 26.0411C21.7557 25.394 21.8937 24.7005 21.8937 24.0001V18.6667H13.547C12.8397 18.6667 12.1615 18.3858 11.6614 17.8857C11.1613 17.3856 10.8803 16.7073 10.8803 16.0001Z" fill="#674ABE"/>
</svg>
