<svg width="28" height="32" viewBox="0 0 28 32" fill="none" xmlns="http://www.w3.org/2000/svg">
<g clip-path="url(#clip0_142_6962)">
<path fill-rule="evenodd" clip-rule="evenodd" d="M13.9359 32.0001C15.852 32.0001 17.4197 30.5601 17.4197 28.8001H10.452C10.452 30.5601 12.0023 32.0001 13.9359 32.0001ZM24.3875 22.4001V14.4001C24.3875 9.48805 21.5307 5.37605 16.5488 4.28805V3.20005C16.5488 1.87205 15.3817 0.800049 13.9359 0.800049C12.4901 0.800049 11.323 1.87205 11.323 3.20005V4.28805C6.3236 5.37605 3.48424 9.47205 3.48424 14.4001V22.4001L1.23715 24.4641C0.139728 25.4721 0.906179 27.2001 2.4565 27.2001H25.3978C26.9481 27.2001 27.732 25.4721 26.6346 24.4641L24.3875 22.4001Z" fill="#F8A80E" fill-opacity="0.85"/>
</g>
<defs>
<clipPath id="clip0_142_6962">
<rect width="27.871" height="32" fill="white"/>
</clipPath>
</defs>
</svg>
