<svg width="24" height="21" viewBox="0 0 24 21" fill="none" xmlns="http://www.w3.org/2000/svg">
<g clip-path="url(#clip0_142_6955)">
<path d="M1.99512 1.68169L0.0638724 5.8981C-0.108628 6.27544 0.0751224 6.72661 0.442622 6.84146L7.86387 9.15884C8.13012 9.24087 8.41512 9.11782 8.55762 8.85943L12.0001 2.62505L2.61762 1.31665C2.35887 1.28384 2.11137 1.4274 1.99512 1.68169ZM23.9364 5.8981L22.0051 1.68169C21.8889 1.4274 21.6376 1.27974 21.3789 1.31665L12.0001 2.62505L15.4389 8.86353C15.5814 9.12193 15.8664 9.24497 16.1326 9.16294L23.5539 6.84556C23.9251 6.72661 24.1051 6.27544 23.9364 5.8981ZM15.9639 10.5001C15.3301 10.5001 14.7339 10.1309 14.4114 9.54029L12.0001 5.16802L9.59262 9.54029C9.26637 10.135 8.67012 10.5042 8.03637 10.5042C7.86762 10.5042 7.69887 10.4795 7.53762 10.4262L2.40012 8.81841V16.1192C2.40012 16.7221 2.77512 17.2471 3.30762 17.3907L11.4151 19.6096C11.7976 19.7122 12.1989 19.7122 12.5776 19.6096L20.6926 17.3907C21.2251 17.243 21.6001 16.718 21.6001 16.1192V8.81841L16.4626 10.4221C16.3014 10.4754 16.1326 10.5001 15.9639 10.5001Z" fill="#F3AF2C" fill-opacity="0.85"/>
</g>
<defs>
<clipPath id="clip0_142_6955">
<rect width="24" height="21" fill="white"/>
</clipPath>
</defs>
</svg>
