<svg xmlns="http://www.w3.org/2000/svg" xmlns:xlink="http://www.w3.org/1999/xlink" width="43.064" height="35" viewBox="0 0 43.064 35">
  <defs>
    <path id="path-2" fill-rule="evenodd" d="M0 33.01450936v-21.6369233h43.03164014v21.6369233s.0056036.38613775-.13108136.78008034c-.07932413.22862174-.23501593.45543577-.39343412.6224874-.10633712.11213227-.39531677.32782293-.73292419.43868806-.39090425.128367-.8285579.14423484-.8285579.14423484H1.96112721s-.16274937-.000693-.3364427-.01831708c-.15193932-.01541677-.3141139-.04662593-.35844943-.06415987-.2456225-.09713947-.64308263-.30105154-.89122204-.61361775-.19331007-.243501-.2888624-.55928744-.33483326-.77883152C.00776178 33.37025445 0 33.01450936 0 33.01450936z"/>
    <mask id="mask-3" x="0" y="0" maskContentUnits="userSpaceOnUse" maskUnits="userSpaceOnUse">
      <rect width="43.064" height="35" x="0" y="0" fill="black"/>
      <use fill="white" xlink:href="#path-2"/>
    </mask>
    <path id="path-7" fill-rule="evenodd" d="M5.42655639 15.46866813h16.10338632v6.25409884H5.42655639v-6.25409884z"/>
    <mask id="mask-8" x="0" y="0" maskContentUnits="userSpaceOnUse" maskUnits="userSpaceOnUse">
      <rect width="43.064" height="35" x="0" y="0" fill="black"/>
      <use fill="white" xlink:href="#path-7"/>
    </mask>
  </defs>
  <g>
    <path fill="rgb(255,193,192)" fill-rule="evenodd" d="M43.05591237 2.61631125v5.91695548H0v-6.4553827s.03418424-.55704958.10570375-.77484056c.0818568-.24927.21795967-.54674424.42687383-.76415653.24022157-.2499932.57551136-.39543349.82234552-.47104028.15818667-.04845353.72020226-.06753795.72020226-.06753795h38.65840276s1.18017319-.03654724 1.80975494.68566554c.62958175.72221278.51262931 1.930337.51262931 1.930337z"/>
    <use fill-opacity="0" stroke="rgb(216,81,79)" stroke-linecap="butt" stroke-linejoin="miter" stroke-width="3" mask="url(#mask-3)" xlink:href="#path-2"/>
    <path fill="rgb(216,81,79)" fill-rule="evenodd" d="M2.85608231 2.84462805h2.85608231V5.6889474H2.85608231V2.84462805z"/>
    <path fill="rgb(216,81,79)" fill-rule="evenodd" d="M8.56824693 2.84462805h2.85608231V5.6889474h-2.8560823V2.84462805z"/>
    <path fill="rgb(37,71,84)" fill-rule="evenodd" d="M29.86272062 19.505513c1.27247988-.41972672 2.52982251.60365938 3.38788484 1.00432917l1.35521106-2.5037595c-1.01866936-.51975196-1.6790908-1.02196394-3.00650265-1.32071229v-1.4206427h-2.8560823v1.62571813c-2.33532331.89529692-3.24584235 4.32308096-1.18889187 5.92187286.85549185.66832024 2.06218663 1.143606 3.23870214 1.5577389.55712645.1960684.79322926.5701912.70173942 1.11174961-.07025963.41612392-.4300308 1.12189436-1.33293362 1.12786743-.94165033.00606788-1.16356793-.028538-1.85083654-.47632868l-1.19508004-.7784902-1.56351466 2.38022123 1.19498484.77858502c.75076884.48912811 1.3459764.73260185 1.99592552.84751235v1.54730972h2.85608231v-1.70801377c3.44491128-1.220213 3.84190673-6.24659932.1454698-7.51203699-.90156999-.31742604-1.89510582-.69790115-2.42786037-1.11411988-.18297968-.30178229.0973924-.90771712.54570212-1.0688004z"/>
    <use fill-opacity="0" stroke="rgb(255,193,192)" stroke-linecap="butt" stroke-linejoin="miter" stroke-width="4" mask="url(#mask-8)" xlink:href="#path-7"/>
    <path fill="rgb(216,81,79)" fill-rule="evenodd" d="M5.26929438 24.40309505h6.77527014v4.46721346H5.26929438v-4.46721346z"/>
  </g>
</svg>
