<svg xmlns="http://www.w3.org/2000/svg" xmlns:xlink="http://www.w3.org/1999/xlink" width="43" height="35" viewBox="0 0 43 35">
  <defs>
    <path id="path-1" fill-rule="evenodd" d="M.12183451 33.07956412L0 2.22714155S0 1.13285877.52697613.59929962C1.05395225.06574047 2.18800878.00395406 2.18800878.00395406H40.354919s1.08064235-.09235073 1.86039836.61557258c.77975602.7079233.6630839 1.67544134.6630839 1.67544134l.12156667 30.78459614s.00558361.37348592-.13061376.75452095c-.07904116.22113093-.23417756.44051338-.39203063.60209156-.10595778.10845823-.39390655.31708177-.73030962.4243144C41.35750415 34.98465207 40.92141173 35 40.92141173 35H2.0759658s-.1621688-.00067029-.33524252-.01771692c-.1513973-.01491164-.31299336-.04509823-.35717073-.06205766-.24474628-.09395669-.64078856-.29118757-.88804278-.59351252-.19262047-.23552268-.28783194-.54096234-.33363882-.75331304-.03230235-.14974667-.04003644-.49383574-.04003644-.49383574z"/>
    <mask id="mask-2" x="0" y="0" maskContentUnits="userSpaceOnUse" maskUnits="userSpaceOnUse">
      <rect width="43" height="35" x="0" y="0" fill="black"/>
      <use fill="white" xlink:href="#path-1"/>
    </mask>
    <rect id="rect-4" width="8.254" height="6.021" x="28.728" y="24.087"/>
    <mask id="mask-5" x="0" y="0" maskContentUnits="userSpaceOnUse" maskUnits="userSpaceOnUse">
      <rect width="43" height="35" x="0" y="0" fill="black"/>
      <use fill="white" xlink:href="#rect-4"/>
    </mask>
    <path id="path-8" fill-rule="evenodd" d="M5.82936311 24.0012427H23.7773731c.55191503 0 1 .44808498 1 1v3.99932217c0 .55191502-.44808497 1-1 1H5.82936311c-.55191502 0-1-.44808498-1-1V25.0012427c0-.55191502.44808498-1 1-1z"/>
    <mask id="mask-9" x="0" y="0" maskContentUnits="userSpaceOnUse" maskUnits="userSpaceOnUse">
      <rect width="43" height="35" x="0" y="0" fill="black"/>
      <use fill="white" xlink:href="#path-8"/>
    </mask>
  </defs>
  <g>
    <use fill-opacity="0" stroke="rgb(216,81,79)" stroke-linecap="butt" stroke-linejoin="miter" stroke-width="3" mask="url(#mask-2)" xlink:href="#path-1"/>
    <rect width="8.254" height="6.021" x="28.728" y="14.68" fill="rgb(37,71,84)"/>
    <use fill-opacity="0" stroke="rgb(37,71,84)" stroke-linecap="butt" stroke-linejoin="miter" stroke-width="3" mask="url(#mask-5)" xlink:href="#rect-4"/>
    <path fill="rgb(216,81,79)" fill-rule="evenodd" d="M5.82936311 5.53021139H23.7773731c.55191503 0 1 .44808498 1 1v3.99932216c0 .55191503-.44808497 1-1 1H5.82936311c-.55191502 0-1-.44808497-1-1V6.5302114c0-.55191502.44808498-1 1-1z"/>
    <rect width="5.308" height="2.325" x="17.483" y="7.367" fill="rgb(255,255,255)"/>
    <use fill-opacity="0" stroke="rgb(255,193,192)" stroke-linecap="butt" stroke-linejoin="miter" stroke-width="3" mask="url(#mask-9)" xlink:href="#path-8"/>
    <path fill="rgb(255,193,192)" fill-rule="evenodd" d="M5.82936311 14.78185426H23.7773731c.55191503 0 1 .44808497 1 1v3.99932216c0 .55191502-.44808497 1-1 1H5.82936311c-.55191502 0-1-.44808498-1-1v-3.99932216c0-.55191503.44808498-1 1-1z"/>
    <path fill="rgb(37,71,84)" fill-rule="evenodd" d="M33.06710503 11.8521087c-.09364204.10601812-.25560153.11410716-.35990344.01795653L28.7643419 8.2349287c-.10430191-.09615064-.10883678-.25793154-.01018872-.35953224L30.0103699 6.582354c.09870695-.1016007.26478905-.10601812.36909096-.00992486l2.15382568 1.9856024c.10430191.09615064.2662614.0880616.35990344-.01795653l4.20782542-4.76249699c.09364203-.10601812.25937076-.118123.36814865-.02684874l1.38507758 1.1612656c.10883678.0912169.1212635.25265358.02756256.3586717l-5.81469916 6.58144212z"/>
  </g>
</svg>
