<svg width="60" height="60" viewBox="0 0 60 60" fill="none" xmlns="http://www.w3.org/2000/svg">
<g clip-path="url(#clip0_142_9582)">
<path d="M55.9775 14.9411C53.2947 10.3451 49.6557 6.70609 45.0596 4.02346C40.4625 1.34097 35.4443 0 30.0009 0C24.5581 0 19.5383 1.34097 14.9421 4.02346C10.3456 6.70568 6.70663 10.3447 4.02387 14.9411C1.34097 19.5379 0 24.5576 0 30.0001C0 35.4428 1.34138 40.4617 4.02346 45.0587C6.70609 49.6548 10.3451 53.2938 14.9415 55.9767C19.5383 58.659 24.5577 60.0001 30.0003 60.0001C35.443 60.0001 40.463 58.659 45.0594 55.9767C49.6556 53.2947 53.2945 49.6548 55.977 45.0587C58.659 40.4621 59.9999 35.4425 59.9999 30.0001C60 24.5571 58.659 19.5372 55.9775 14.9411ZM35.0012 48.7501C35.0012 49.1143 34.8833 49.4141 34.6492 49.6481C34.4161 49.8822 34.1163 49.9993 33.7521 49.9993H26.2512C25.8867 49.9993 25.5871 49.8822 25.3527 49.6481C25.1182 49.414 25.0011 49.1143 25.0011 48.7501V41.2493C25.0011 40.885 25.1181 40.5853 25.3527 40.3513C25.5871 40.1176 25.8867 40.0006 26.2512 40.0006H33.7521C34.1163 40.0006 34.4161 40.1176 34.6492 40.3513C34.8833 40.5854 35.0012 40.885 35.0012 41.2493V48.7501ZM44.5127 25.6638C44.1868 26.6275 43.8226 27.4157 43.4189 28.0274C43.0155 28.6394 42.4356 29.2645 41.6801 29.9022C40.9262 30.5402 40.3268 30.9963 39.883 31.2702C39.441 31.5431 38.8024 31.915 37.97 32.3832C37.1103 32.8775 36.4013 33.5224 35.8417 34.317C35.2817 35.1111 35.0018 35.7554 35.0018 36.2497C35.0018 36.615 34.8839 36.9145 34.6496 37.1488C34.4161 37.3829 34.1164 37.4998 33.7521 37.4998H26.2516C25.8871 37.4998 25.5875 37.3829 25.3531 37.1488C25.1185 36.9145 25.0018 36.615 25.0018 36.2497V34.8433C25.0018 33.0986 25.6849 31.4638 27.0523 29.9408C28.4197 28.4172 29.9236 27.2909 31.5645 26.5616C32.8136 25.9889 33.6994 25.4028 34.2201 24.8039C34.7417 24.2051 35.0021 23.41 35.0021 22.4209C35.0021 21.5613 34.5133 20.7932 33.5366 20.1157C32.5598 19.4388 31.4473 19.1003 30.197 19.1003C28.8424 19.1003 27.723 19.413 26.8373 20.0382C25.9777 20.6628 24.8582 21.8609 23.4779 23.6315C23.2435 23.9443 22.9179 24.1009 22.5011 24.1009C22.1886 24.1009 21.9411 24.023 21.759 23.8671L16.6031 19.9606C16.0042 19.4918 15.9001 18.9452 16.2903 18.32C19.6241 12.7731 24.4546 9.99961 30.7825 9.99961C33.0487 9.99961 35.2626 10.5336 37.4239 11.6015C39.5851 12.6688 41.3888 14.1795 42.8346 16.1328C44.2786 18.0855 45.0025 20.2083 45.0025 22.5C45.0006 23.6457 44.8372 24.6999 44.5127 25.6638Z" fill="#669CFF"/>
</g>
<defs>
<clipPath id="clip0_142_9582">
<rect width="60" height="60" fill="white"/>
</clipPath>
</defs>
</svg>
